<svg xmlns="http://www.w3.org/2000/svg" width="17.334" height="20" viewBox="0 0 17.334 20"><defs><style>.a{fill:#7d7d7d;}</style></defs><path class="a" d="M107.308,31.964a.651.651,0,0,1,.32.067.663.663,0,0,1,.181.129l3.044,3.048,2.285,2.284a.653.653,0,0,1,.2.467v12a2,2,0,0,1-2,2H98a2,2,0,0,1-2-2v-16a2,2,0,0,1,2-2Zm-.641,1.333H98a.667.667,0,0,0-.667.667v16A.667.667,0,0,0,98,50.63h13.333a.667.667,0,0,0,.667-.667V38.63h-4.666a.667.667,0,0,1-.656-.547l-.011-.12ZM108,34.24V37.3h3.056l-1.032-1.033Zm-.667,13.723a.667.667,0,0,1,.12,1.323l-.12.011h-8a.667.667,0,0,1-.12-1.323l.12-.011Z" transform="translate(-96 -31.963)"/></svg>