<svg xmlns="http://www.w3.org/2000/svg" width="20" height="20" viewBox="0 0 20 20"><defs><style>.a{fill:#7d7d7d;}</style></defs><path class="a" d="M10,0A10,10,0,1,0,20,10,10.013,10.013,0,0,0,10,0Zm0,18.75A8.75,8.75,0,1,1,18.75,10,8.76,8.76,0,0,1,10,18.75ZM6.25,7.5,5,7.5A1.25,1.25,0,1,0,6.25,6.25,1.25,1.25,0,0,0,5,7.5Zm8.75,0-1.25,0a1.25,1.25,0,1,0,1.25-1.25A1.25,1.25,0,0,0,12.5,7.5ZM10,13.75a3.737,3.737,0,0,1-3.075-1.613L5.9,12.85a4.993,4.993,0,0,0,8.2.012l-1.025-.713A3.758,3.758,0,0,1,10,13.75Z"/></svg>