<svg xmlns="http://www.w3.org/2000/svg" width="60" height="57.253" viewBox="0 0 60 57.253"><defs><style>.a{fill:#fff;}</style></defs><path class="a" d="M37.581,65.842a4.393,4.393,0,1,0,4.393-4.393A4.367,4.367,0,0,0,37.581,65.842Zm19.667-4.393a4.393,4.393,0,1,0,4.393,4.393,4.432,4.432,0,0,0-4.393-4.393Zm16.872.9h-.3C70.826,51.965,61.441,47.273,57.448,45.376c-.2-.1-.3-.2-.5-.3a4.434,4.434,0,0,0,1.3-2.1,2.96,2.96,0,0,0-.8-2.7c-.6-.7-1.9-2.1-9.584-1.1-7.488.8-25.158,6.789-28.652,23.161h-.4a2.259,2.259,0,0,0-2.3,2.3v7.288a2.259,2.259,0,0,0,2.3,2.3h.4C21.807,87.007,32.589,92.6,42.972,93.7v.1a2.259,2.259,0,0,0,2.3,2.3h9.384a2.259,2.259,0,0,0,2.3-2.3V88.3a2.259,2.259,0,0,0-2.3-2.3H45.268a2.259,2.259,0,0,0-2.3,2.3v.3c-5.99-.7-16.073-3.694-18.769-14.676a2.525,2.525,0,0,0,1.3-2.1V64.544a2.271,2.271,0,0,0-1.2-2c3.993-15.574,23.96-18.469,24.16-18.569,1.3-.2,2.3-.2,3.195-.3a4.139,4.139,0,0,0-.3,1.6,4.046,4.046,0,0,0,1.6,3.095,9.4,9.4,0,0,0,2.4,1.4c3.494,1.7,10.682,5.291,13.378,12.779a2.271,2.271,0,0,0-1.2,2v7.288a2.259,2.259,0,0,0,2.3,2.3H74.22a2.259,2.259,0,0,0,2.3-2.3V64.544A2.4,2.4,0,0,0,74.12,62.348Z" transform="translate(-16.516 -38.838)"/></svg>