<svg xmlns="http://www.w3.org/2000/svg" width="20" height="20" viewBox="0 0 20 20"><defs><style>.a{fill:#7d7d7d;}</style></defs><path class="a" d="M17.149,0H2.851A2.969,2.969,0,0,0,0,3.073V16.927A2.969,2.969,0,0,0,2.851,20h14.3A2.969,2.969,0,0,0,20,16.927V3.073A2.969,2.969,0,0,0,17.149,0Zm1.425,16.951a1.484,1.484,0,0,1-1.425,1.537H2.851a1.369,1.369,0,0,1-1.213-.78l4.787-5.16,2.319,2.5a.838.838,0,0,0,1.213-.139L15,9.475l3.575,3.853Zm0-5.734L15.468,7.868a.647.647,0,0,0-.978,0c-.021.023-.021.092-.042.115L9.3,13.534l-2.4-2.592a.648.648,0,0,0-.979,0c-.021.023-.021.092-.042.115L1.425,15.85V3.073A1.484,1.484,0,0,1,2.85,1.537h14.3a1.484,1.484,0,0,1,1.425,1.537v8.142Zm-10-8.142A2.965,2.965,0,0,0,5.745,6.156,2.963,2.963,0,0,0,8.589,9.222a2.964,2.964,0,0,0,2.836-3.073A2.969,2.969,0,0,0,8.574,3.073Zm0,4.633a1.483,1.483,0,0,1-1.415-1.54A1.481,1.481,0,0,1,8.581,4.635,1.482,1.482,0,0,1,10,6.171,1.484,1.484,0,0,1,8.574,7.707Z" transform="translate(0 0)"/></svg>