<svg xmlns="http://www.w3.org/2000/svg" width="20" height="20" viewBox="0 0 20 20"><defs><style>.a{fill:#7d7d7d;}</style></defs><path class="a" d="M-825.667,3814a3.424,3.424,0,0,1-3.333-3.5v-13a3.423,3.423,0,0,1,3.333-3.5h13.334a3.423,3.423,0,0,1,3.333,3.5v13a3.423,3.423,0,0,1-3.333,3.5h-13.334Zm-2.38-16.5v13a2.443,2.443,0,0,0,2.38,2.5h13.334a2.445,2.445,0,0,0,2.38-2.5V3809h-1.905a.49.49,0,0,1-.477-.5.489.489,0,0,1,.477-.5h1.905v-2h-1.905a.47.47,0,0,1-.433-.242.522.522,0,0,1,0-.515.471.471,0,0,1,.433-.242h1.905v-2h-1.905a.471.471,0,0,1-.433-.242.522.522,0,0,1,0-.515.47.47,0,0,1,.433-.242h1.905v-2h-1.905a.473.473,0,0,1-.413-.25.521.521,0,0,1,0-.5.473.473,0,0,1,.413-.25h1.905v-1.5a2.446,2.446,0,0,0-2.38-2.5h-13.334A2.446,2.446,0,0,0-828.048,3797.5Zm5.714,9.6v-6.2a1.283,1.283,0,0,1,1.161-1.4,1.119,1.119,0,0,1,.627.2l4.516,3.1a1.4,1.4,0,0,1,.586,1.177,1.457,1.457,0,0,1-.612,1.22l-4.476,3.1a1.139,1.139,0,0,1-.632.2h0A1.288,1.288,0,0,1-822.333,3807.1Zm1.161-6.6c-.1,0-.209.164-.209.4v6.2c0,.241.113.4.218.4a.213.213,0,0,0,.11-.041l4.476-3.1a.466.466,0,0,0,.181-.383.4.4,0,0,0-.153-.338l-4.516-3.1a.2.2,0,0,0-.107-.041Z" transform="translate(829 -3794)"/></svg>